<?xml version="1.0" encoding="UTF-8" standalone="no"?>
<svg
   width="48"
   height="48"
   version="1.1"
   viewBox="0 0 48 48"
   id="svg6"
   sodipodi:docname="geany1.svg"
   inkscape:version="1.1 (c4e8f9ed74, 2021-05-24)"
   xmlns:inkscape="http://www.inkscape.org/namespaces/inkscape"
   xmlns:sodipodi="http://sodipodi.sourceforge.net/DTD/sodipodi-0.dtd"
   xmlns="http://www.w3.org/2000/svg"
   xmlns:svg="http://www.w3.org/2000/svg"
   xmlns:rdf="http://www.w3.org/1999/02/22-rdf-syntax-ns#"
   xmlns:cc="http://creativecommons.org/ns#"
   xmlns:dc="http://purl.org/dc/elements/1.1/">
  <defs
     id="defs10" />
  <sodipodi:namedview
     id="namedview8"
     pagecolor="#ffffff"
     bordercolor="#666666"
     borderopacity="1.0"
     inkscape:pageshadow="2"
     inkscape:pageopacity="0.0"
     inkscape:pagecheckerboard="0"
     showgrid="false"
     inkscape:zoom="18.1875"
     inkscape:cx="24.769759"
     inkscape:cy="23.972509"
     inkscape:window-width="1823"
     inkscape:window-height="1176"
     inkscape:window-x="363"
     inkscape:window-y="115"
     inkscape:window-maximized="0"
     inkscape:current-layer="svg6" />
  <metadata
     id="metadata2">
    <rdf:RDF>
      <cc:Work
         rdf:about="">
        <dc:format>image/svg+xml</dc:format>
        <dc:type
           rdf:resource="http://purl.org/dc/dcmitype/StillImage" />
      </cc:Work>
    </rdf:RDF>
  </metadata>
  <path
     d="m 6.8116184,-2.6656185 c -0.044608,0.014888 -0.076897,0.043935 -0.099139,0.08714 0.044845,-0.039994 0.099139,-0.08714 0.099139,-0.08714 z M 24.976675,16.903023 c -1.402268,0 -2.540351,1.137532 -2.540351,2.54159 0,0.111953 0.0084,0.220201 0.02224,0.328347 -3.328672,1.087462 -7.117044,3.585378 -7.117044,3.585378 H 12.823441 C 10.581957,23.257042 8.2638147,18.0616 4.5424723,17.545516 l -4.41474455,0.660737 c 4.80004915,0.843862 5.63654005,4.381146 6.19603825,8.022021 0.3613389,2.351383 0.6075494,4.746422 1.7347255,6.487761 2.6758695,3.572038 7.8631605,5.966436 13.2806975,6.708679 l -0.742877,1.917329 -6.426798,1.609271 h 19.276339 l -6.424775,-1.609271 -0.722642,-1.712642 c 5.322618,-0.309941 10.184291,-2.404441 12.331347,-6.751228 1.106345,1.789857 3.133802,4.556682 4.795303,3.927928 5.270082,-1.994383 6.198347,-13.791159 1.471582,-16.860874 -1.923833,-1.249396 -6.013856,3.346231 -6.013856,3.346231 l 0.0095,0.06686 h -4.153646 c 0,0 -3.884294,-2.559336 -7.24254,-3.623898 0.01076,-0.09545 0.01817,-0.191461 0.01817,-0.289828 0,-1.404073 -1.136051,-2.541587 -2.53833,-2.541587 z m 16.988991,6.554631 c 0.363348,-0.0044 0.719616,0.18333 1.107241,0.531016 2.263321,2.05299 1.976918,6.641711 0.07283,8.340237 -0.386871,0.329765 -0.854752,0.621913 -1.323829,0.441851 -0.939076,-0.372488 -1.812183,-2.182838 -2.196233,-3.080722 0.199954,-1.261381 0.221445,-2.654492 0.03648,-4.183294 0.283761,-0.419121 0.700183,-0.981259 1.155807,-1.426858 0.41343,-0.419618 0.784373,-0.617722 1.147722,-0.62223 z"
     style="fill:#ffffff;fill-opacity:1;stroke-width:1.38375"
     id="path2" />
</svg>
