<?xml version="1.0" encoding="UTF-8" standalone="no"?>
<svg
   width="48"
   height="48"
   version="1.1"
   id="svg4"
   sodipodi:docname="thuna1r.svg"
   inkscape:version="1.1 (c4e8f9ed74, 2021-05-24)"
   xmlns:inkscape="http://www.inkscape.org/namespaces/inkscape"
   xmlns:sodipodi="http://sodipodi.sourceforge.net/DTD/sodipodi-0.dtd"
   xmlns="http://www.w3.org/2000/svg"
   xmlns:svg="http://www.w3.org/2000/svg"><defs
   id="defs8" />
<sodipodi:namedview
   id="namedview6"
   pagecolor="#ffffff"
   bordercolor="#666666"
   borderopacity="1.0"
   inkscape:pageshadow="2"
   inkscape:pageopacity="0.0"
   inkscape:pagecheckerboard="0"
   showgrid="false"
   inkscape:zoom="18.1875"
   inkscape:cx="12.756014"
   inkscape:cy="23.972509"
   inkscape:window-width="2550"
   inkscape:window-height="1366"
   inkscape:window-x="0"
   inkscape:window-y="40"
   inkscape:window-maximized="1"
   inkscape:current-layer="svg4" />

 id=&quot;defs6&quot;&gt;
 <path
   d="M 28.156693,4.6787127 C 18.897711,4.6999967 7.8803448,5.009181 7.8803448,5.009181 L 4.753467,17.508658 7.6439483,24.195781 H 19.367053 c 0,0 -1.042842,10.671616 -1.203472,16.192945 -0.160631,5.521334 11.752285,4.249368 11.561923,0.369347 l -0.805895,-16.426216 11.164349,-0.136076 3.21284,-6.47329 c 0,0 -1.841838,-8.8577991 -3.126878,-12.6355526 C 38.633895,4.7600172 33.712084,4.6659426 28.156693,4.6787127 Z M 39.407005,5.590958 c 0,0 -20.67122,0.4124327 -24.703406,0.874769 C 10.671413,6.9280632 8.1765964,7.5890319 8.1765964,7.4862907 L 8.5979522,5.6978741 c 0,0 22.5175138,-0.8774764 30.8090528,-0.1069161 z m -7.263811,1.1774806 c 0,0 -1.760748,1.2900397 -2.385454,2.4201943 -0.624704,1.1301551 -2.383973,2.4077021 -3.008679,2.4590731 0,0.976043 -0.281,2.936771 -1.246453,3.450477 -0.965453,0.513707 -0.859622,1.535705 -0.859622,1.535705 0,0 -3.631906,-1.903909 -3.631906,-4.626555 C 17.944347,10.671695 17.319282,9.7023071 17.035325,8.8290056 16.751369,7.955704 16.074344,7.3390934 15.563221,7.0308694 c 2.442029,-0.051371 4.823298,-0.6150132 7.038161,0.5151417 -0.283957,0.6678191 -0.623227,0.9719655 -0.623227,0.9719655 0,0 -1.814617,-0.613708 -4.02948,-0.4082255 0.965452,0.7191895 0.846351,3.2838399 6.866236,3.1297289 v 1.078882 l -2.492906,-0.09719 c 0,0 0.04918,1.539913 0.730679,2.002249 0.681495,0.462336 1.257198,0.816452 1.257198,0.816452 0,0 1.585687,-1.695493 1.472104,-2.877018 -0.113583,-1.181526 -0.508166,-1.741286 -1.246452,-2.6145879 0.454331,-0.8733017 0.730678,-0.7775724 0.730678,-0.7775724 0,0 1.421443,1.1358945 1.364652,2.0605673 1.079035,-1.18153 2.390068,-2.4160887 2.50365,-3.0325368 C 27.828313,7.5932426 25.33054,7.6488857 23.740383,8.9845231 22.150224,10.32016 22.375731,10.782659 22.375731,10.782659 l -1.246453,-0.466543 c 0,0 1.581252,-2.6215673 3.341783,-3.0325326 1.760533,-0.4109653 7.672133,-0.5151418 7.672133,-0.5151418 z M 11.32958,9.1594739 c 0.922304,-0.030102 1.905088,0.154878 3.040915,0.7970117 1.817324,1.0274134 2.492906,-0.048598 2.492906,-0.048598 0,0 0.686219,0.5110644 1.310925,1.4871064 -1.135828,0.924673 -5.790374,0.05558 -8.005236,0.466543 -2.2148631,0.410966 -1.5947021,2.106394 0.676953,2.157765 2.271653,0.05138 1.594737,-1.235767 -0.279378,-1.030284 2.896359,-1.849345 3.745488,-0.362335 3.631906,0.408226 -0.113584,0.77056 -2.216666,1.700939 -2.954953,1.700939 -0.738287,0 -3.2988373,-0.366703 -3.6963772,-1.856453 C 7.1497009,11.75198 9.8178117,10.928452 12.543797,10.928452 11.464761,9.4387016 9.7070426,9.3927456 9.7070426,9.3927456 10.239462,9.2771617 10.776198,9.1775339 11.32958,9.1594739 Z m 24.832349,0 c 0.11736,-0.00344 0.228561,-0.00376 0.343849,0 0.553384,0.018059 1.079374,0.1176878 1.611793,0.2332717 0,0 -1.75772,0.045955 -2.836754,1.5357064 2.725986,0 5.394097,0.823528 4.996556,2.313278 -0.397538,1.48975 -2.947347,1.856453 -3.685632,1.856453 -0.738288,0 -2.84137,-0.930379 -2.954953,-1.700939 -0.113583,-0.770561 0.735547,-2.257571 3.631906,-0.408226 -1.874115,-0.205483 -2.551031,1.081654 -0.279377,1.030284 2.271655,-0.05138 2.891815,-1.746799 0.676953,-2.157764 -2.214865,-0.410966 -6.86941,0.458129 -8.005237,-0.466543 0.624706,-0.976043 1.310925,-1.4871078 1.310925,-1.4871078 0,0 0.675582,1.0760118 2.492906,0.048598 0.993848,-0.561867 1.875553,-0.7729912 2.697065,-0.7970113 z M 6.6220484,13.804974 c 0,0 -0.3240458,1.755611 2.9130693,2.012464 3.2371083,0.256854 15.6794943,1.228852 22.2105003,1.331593 H 5.7312878 Z m 27.6057296,2.099941 1.719245,1.351032 -3.610414,2.828419 z m 7.285302,2.760381 c 0.01111,0.0052 -0.0058,0.03758 -0.04299,0.08748 z m -0.05373,0.09719 -2.245764,4.237769 -9.283924,0.07776 c 0,0 6.00232,-0.07666 7.919273,-1.282995 1.677334,-1.055549 3.296258,-2.625247 3.610415,-3.03253 z m -34.9329173,0.09719 c 0.2934961,0.448089 1.7314907,2.024208 3.4707257,3.013094 1.9876976,1.130153 9.0797646,1.438508 9.0797646,1.438508 L 8.5143159,23.10718 Z m 17.4288493,0.515142 c 1.16691,-0.021 2.395805,0.47754 3.80383,2.050848 0.08031,4.722191 1.505752,18.800577 1.525831,19.254637 0.02008,0.454054 -1.088255,2.801813 -5.104011,2.838139 -4.015755,0.03632 -5.254443,-1.890083 -5.254443,-3.197768 0,-1.307683 1.530929,-18.7451 1.450613,-18.963046 0,0 1.350443,-1.942723 3.57818,-1.98281 z m 0.150434,0.816451 c -1.686617,0.07265 -3.051661,1.457949 -3.051661,1.457949 l -0.343848,5.336089 c 0,0 0.658677,-1.265045 2.385453,-1.700938 -1.682691,1.532622 -2.396198,3.946179 -2.396198,3.946179 0,0 -0.726916,3.679351 1.16049,6.657964 0,0 1.005978,-2.90717 2.170546,-3.197767 0,0 -1.124725,3.265024 3.051661,5.880393 0,0 -4.89249,-1.55741 -7.478717,1.020563 0.642521,2.034176 1.629553,3.197767 4.341094,3.197767 2.711542,0 4.744318,-2.184298 4.824633,-2.83814 0.08031,-0.653842 -1.525831,-18.30211 -1.525831,-18.30211 0,0 -1.69195,-1.457949 -3.137622,-1.457949 z"
   fill="#ffffff"
   id="path2"
   style="stroke:none;stroke-width:0.942217;stroke-opacity:1" />
</svg>
